<svg width="245" height="54" viewBox="0 0 245 54" fill="none" xmlns="http://www.w3.org/2000/svg">
<path d="M36.3734 0.875102L36.5031 1.17774C40.3189 10.0878 44.4044 16.1121 49.3421 19.7661C54.2625 23.4071 60.087 24.7359 67.4785 24.1367C78.9348 23.208 88.5307 14.5799 91.771 1.914L91.8641 1.5526L92.2362 1.53768C101.506 1.16357 110.654 1.15713 119.78 1.15051L120.31 1.15012L120.28 1.67846C118.78 28.1637 94.8696 51.2086 68.0252 52.564C36.4131 54.1601 11.0501 30.9228 8.43063 1.4403L8.3822 0.895417L36.3734 0.875102Z" stroke="white"/>
<path d="M244.099 0.500356L244.114 0.984719C244.415 10.6718 240.387 20.9261 233.698 29.6671C227.007 38.4112 217.623 45.6823 207.15 49.3875C183.787 57.6527 158.745 49.8392 142.767 29.1471L142.76 29.1374L142.754 29.1286C136.835 20.6946 133.488 11.6392 132.49 1.33917L132.438 0.790378L160.664 0.769892L160.765 1.13701C162.764 8.40982 166.057 14.2548 170.799 18.2098C175.534 22.1585 181.759 24.2608 189.705 23.9715C197.001 23.7058 202.707 21.3691 207.049 17.4071C211.397 13.4385 214.412 7.80518 216.258 0.891655L216.357 0.520489L244.099 0.500356Z" stroke="white"/>
<path d="M83.3643 2.03723C92.6233 1.66358 101.761 1.65695 110.889 1.65032C109.405 27.8699 85.7088 50.7213 59.1091 52.0643C27.7679 53.6467 2.63292 30.6131 0.0371094 1.3949C9.05667 1.38835 18.0588 1.38182 27.152 1.37522C34.8129 19.2636 43.6692 25.8479 58.6267 24.6353C70.3261 23.687 80.0789 14.8793 83.3643 2.03723Z" fill="#FCFCFC"/>
<path d="M134.271 28.8407C128.402 20.4774 125.086 11.5042 124.097 1.2897C133.111 1.28316 142.115 1.27662 151.391 1.26989C155.426 15.9468 164.731 25.0574 180.831 24.4712C195.632 23.9323 204.125 14.9723 207.85 1.02009C216.886 1.01353 225.807 1.00706 234.723 1.00058C235.317 20.0862 218.836 41.5775 198.092 48.916C174.946 57.1044 150.127 49.3737 134.271 28.8407Z" fill="#FCFCFC"/>
</svg>
